<?xml version="1.0" encoding="iso-8859-1"?>
<!-- Generator: Adobe Illustrator 16.0.0, SVG Export Plug-In . SVG Version: 6.00 Build 0)  -->
<!DOCTYPE svg PUBLIC "-//W3C//DTD SVG 1.1//EN" "http://www.w3.org/Graphics/SVG/1.1/DTD/svg11.dtd">
<svg width="16px" height="16px" viewBox="0 0 16 16" version="1.1" xmlns="http://www.w3.org/2000/svg" xmlns:xlink="http://www.w3.org/1999/xlink">

  <g id="Page-1" stroke="none" stroke-width="1" fill="none" fill-rule="evenodd">
    <g id="footer" transform="translate(-399.000000, -133.000000)" fill="#06C6FF" fill-rule="nonzero">
      <g id="Group-24" transform="translate(399.000000, 132.000000)">
        <g id="phone_footer" transform="translate(0.000000, 1.000000)">
          <path d="M3.2,6.93333333 C4.44444444,9.42222222 6.57777778,11.4666667 9.06666667,12.8 L11.0222222,10.8444444 C11.288854,10.5778126 11.6444444,10.4889237 11.9111111,10.6666667 C12.8888889,11.0222222 13.9555207,11.2 15.1111111,11.2 C15.6444444,11.2 16,11.5555556 16,12.0888889 L16,15.1111111 C16,15.6444444 15.6444444,16 15.1111111,16 C6.75555556,16 0,9.24444444 0,0.888888889 C0,0.355555556 0.355555556,0 0.888888889,0 L4,0 C4.53333333,0 4.88888889,0.355555556 4.88888889,0.888888889 C4.88888889,1.95555556 5.06666667,3.02222222 5.42222222,4.08888889 C5.51111111,4.35555556 5.42222222,4.71111111 5.24444444,4.97777778 L3.2,6.93333333 Z" id="Path"></path>
        </g>
      </g>
    </g>
  </g>
</svg>




